<svg width="68" height="68" viewBox="0 0 68 68" fill="none" xmlns="http://www.w3.org/2000/svg">
<circle cx="34" cy="34" r="34" fill="#F0F0F0"/>
<path d="M32.4925 57C28.9512 57 25.9218 56.4667 23.4045 55.4C20.8872 54.3333 18.8178 52.8613 17.1965 50.984C15.5752 49.1067 14.3805 46.9733 13.6125 44.584C12.8445 42.1947 12.4605 39.6773 12.4605 37.032C12.4605 34.3867 12.8658 31.72 13.6765 29.032C14.5298 26.344 15.7458 23.8053 17.3245 21.416C18.9032 18.984 20.8018 16.8293 23.0205 14.952C25.2818 13.032 27.8205 11.5173 30.6365 10.408C33.4525 9.29867 36.5032 8.744 39.7885 8.744C41.3245 8.744 42.8818 8.872 44.4605 9.128C46.0818 9.384 47.7032 9.78933 49.3245 10.344V15.72C47.7032 15.0373 46.1032 14.568 44.5245 14.312C42.9885 14.056 41.2818 13.928 39.4045 13.928C37.0578 13.928 34.7965 14.4613 32.6205 15.528C30.4445 16.552 28.4818 18.0667 26.7325 20.072C24.9832 22.0347 23.5965 24.3813 22.5725 27.112C21.5485 29.8427 21.0365 32.8933 21.0365 36.264C21.0365 39.1653 21.5912 41.6613 22.7005 43.752C23.8525 45.8 25.4098 47.3787 27.3725 48.488C29.3352 49.5547 31.5752 50.088 34.0925 50.088C36.6098 50.088 38.9138 49.7467 41.0045 49.064C43.0952 48.3813 44.8872 47.4853 46.3805 46.376C47.8738 45.2667 49.0258 44.0933 49.8365 42.856C50.6898 41.576 51.1165 40.3387 51.1165 39.144C51.1165 37.6507 50.7325 36.5627 49.9645 35.88C49.1965 35.1547 48.1512 34.792 46.8285 34.792C45.6765 34.792 44.4178 35.0267 43.0525 35.496C41.7298 35.9653 40.4072 36.5627 39.0845 37.288C37.8045 38.0133 36.6312 38.7813 35.5645 39.592L33.3245 31.336C35.5432 29.9707 37.6765 28.9893 39.7245 28.392C41.8152 27.7947 43.7352 27.496 45.4845 27.496C47.4898 27.496 49.2392 27.8587 50.7325 28.584C52.2685 29.3093 53.4418 30.4187 54.2525 31.912C55.1058 33.4053 55.5325 35.3467 55.5325 37.736C55.5325 39.7413 55.0845 41.704 54.1885 43.624C53.2925 45.5013 52.0765 47.2507 50.5405 48.872C49.0045 50.4507 47.2338 51.8587 45.2285 53.096C43.2658 54.3333 41.1965 55.2933 39.0205 55.976C36.8445 56.6587 34.6685 57 32.4925 57Z" fill="#FE8A03"/>
</svg>
